# xmcd
#
# Track frame offsets:
#	150
#	34153
#	64104
#	79300
#	93386
#	114897
#	144185
#	167971
#	184192
#	203699
#	229360
#
# Disc length: 3326 seconds
#
# Revision: 1
# Processed by: cddbd v1.5.1PL0 Copyright (c) Steve Scherf et al.
# Submitted via: audiograbber 1.80
#
DISCID=910cfc0b
DTITLE=Tribal Trancedance - Tribal Trancedance
DYEAR=1900
DGENRE=
TTITLE0=Proffesor Trance - Xingu
TTITLE1=Friedel Lelonek - Hamu
TTITLE2=Zehava Ben - Razali
TTITLE3=Kau - Calango
TTITLE4=Kamal Engels and Ariel Kalma - Tribal Trance Dance
TTITLE5=Bekaye Kouyate and Sonkoma - Taniye
TTITLE6=Didjworks - Rhythm Culture
TTITLE7=Adesa, Heavan and Earth - Akoma
TTITLE8=Ariel Kalma - Fou la Tete
TTITLE9=Karunesh - Earthsong
TTITLE10=Atman - Gatekeeper
EXTD=
EXTT0=
EXTT1=
EXTT2=
EXTT3=
EXTT4=
EXTT5=
EXTT6=
EXTT7=
EXTT8=
EXTT9=
EXTT10=
PLAYORDER=
